# xmcd
# 
# Track frame offsets:
#     150
#     15993
#     30657
#     48883
#     65244
# 
# Disc length: 1119
# 
# Revision: 0
# Processed by: cddbd v1.5.2PL0 Copyright (c) Steve Scherf et al.
# Submitted via: fre:ac v1.0.31
# 
DISCID=37045d05
DTITLE=フーバーオーバー - タイマー
DYEAR=2008
DGENRE=
TTITLE0=タイマー
TTITLE1=知らない間に
TTITLE2=文学と実生活の一致
TTITLE3=発展家
TTITLE4=赤い花
EXTD=
EXTT0=
EXTT1=
EXTT2=
EXTT3=
EXTT4=
PLAYORDER=
